<svg xmlns="http://www.w3.org/2000/svg" width="758.209" height="441.533" viewBox="0 0 758.209 441.533">
  <g id="Group_137789" data-name="Group 137789" transform="translate(-281.465 -90.846)">
    <path id="Path_321907" data-name="Path 321907" d="M334.417,236.014c99.178-36.819,199.98-4.267,268.345,66.631S814.6,253.709,890.7,324.492c51.929,48.306,28.143,172.5-43.06,226.294C750.852,623.9,456.524,586.8,392.856,574.36c-73.351-14.335-126.976-57.829-148.763-110.618C191.6,336.547,290.588,252.285,334.417,236.014Z" transform="translate(121 -129.873)" fill="#0475e5" opacity="0.16"/>
    <g id="Group_137752" data-name="Group 137752" transform="translate(304.322 124.929)">
      <g id="Group_137747" data-name="Group 137747" transform="translate(206.77)">
        <path id="Path_321908" data-name="Path 321908" d="M1572.666,215.486a82.283,82.283,0,0,0,.514-9.141c0-1.631-.053-3.249-.148-4.857l-15.1-4.887a66.4,66.4,0,0,0-5.348-18.1l10.016-12.325a81.6,81.6,0,0,0-7.934-11.533l-15.107,4.929a67.132,67.132,0,0,0-14.955-11.5l.859-15.872a80.805,80.805,0,0,0-13.187-4.674l-9.328,12.873a67.166,67.166,0,0,0-18.858-.494l-8.637-13.349a80.791,80.791,0,0,0-13.417,3.965l.02,15.9a67.016,67.016,0,0,0-15.542,10.691l-14.821-5.718a81.718,81.718,0,0,0-8.535,11.1l9.353,12.839a66.4,66.4,0,0,0-6.305,17.788l-15.34,4.082a82.291,82.291,0,0,0-.514,9.141c0,1.631.053,3.249.148,4.856l15.1,4.887a66.4,66.4,0,0,0,5.348,18.1l-10.015,12.324a81.59,81.59,0,0,0,7.934,11.533l15.107-4.929a67.109,67.109,0,0,0,14.955,11.5l-.859,15.872a80.812,80.812,0,0,0,13.187,4.674l9.328-12.873a67.162,67.162,0,0,0,18.858.494l8.637,13.35a80.773,80.773,0,0,0,13.417-3.965l-.02-15.9a67,67,0,0,0,15.543-10.691l14.821,5.718a81.7,81.7,0,0,0,8.535-11.1l-9.353-12.84a66.379,66.379,0,0,0,6.306-17.788Zm-80.9,22.792a31.934,31.934,0,1,1,31.934-31.934A31.934,31.934,0,0,1,1491.762,238.278Z" transform="translate(-1410.344 -126.563)" fill="#0475e5"/>
        <g id="Group_137744" data-name="Group 137744" transform="translate(123.779 60.627)">
          <path id="Path_321909" data-name="Path 321909" d="M1930.067,436.113a1.194,1.194,0,0,1-.917-1.957,54.027,54.027,0,0,0,9.519-52.036,1.194,1.194,0,1,1,2.257-.777,56.412,56.412,0,0,1-9.94,54.34A1.192,1.192,0,0,1,1930.067,436.113Z" transform="translate(-1928.874 -380.537)" fill="#fff"/>
        </g>
        <g id="Group_137745" data-name="Group 137745" transform="translate(100.177 26.75)">
          <path id="Path_321910" data-name="Path 321910" d="M1850.171,252.7a1.189,1.189,0,0,1-.818-.324,53.619,53.619,0,0,0-18.568-11.44,1.194,1.194,0,0,1,.814-2.244,56,56,0,0,1,19.39,11.946,1.194,1.194,0,0,1-.819,2.062Z" transform="translate(-1829.999 -238.622)" fill="#fff"/>
        </g>
        <g id="Group_137746" data-name="Group 137746" transform="translate(67.838 23.46)">
          <path id="Path_321911" data-name="Path 321911" d="M1695.722,228.9a1.194,1.194,0,0,1-.291-2.351,56.542,56.542,0,0,1,13.827-1.71,1.194,1.194,0,1,1,0,2.387,54.146,54.146,0,0,0-13.243,1.638A1.2,1.2,0,0,1,1695.722,228.9Z" transform="translate(-1694.529 -224.841)" fill="#fff"/>
        </g>
      </g>
      <g id="Group_137751" data-name="Group 137751" transform="translate(0 229.529)">
        <path id="Path_321912" data-name="Path 321912" d="M656.584,1149.686a56.99,56.99,0,0,0,.356-6.331c0-1.13-.037-2.251-.1-3.364l-10.462-3.385a45.989,45.989,0,0,0-3.7-12.535l6.937-8.536a56.525,56.525,0,0,0-5.5-7.989l-10.464,3.414A46.5,46.5,0,0,0,623.29,1103l.6-10.993a55.984,55.984,0,0,0-9.134-3.237l-6.461,8.916a46.538,46.538,0,0,0-13.062-.342l-5.982-9.246a55.943,55.943,0,0,0-9.294,2.746l.014,11.01a46.411,46.411,0,0,0-10.766,7.405l-10.265-3.961a56.627,56.627,0,0,0-5.912,7.687l6.478,8.893a45.987,45.987,0,0,0-4.367,12.321l-10.625,2.827a56.955,56.955,0,0,0-.356,6.332c0,1.129.037,2.25.1,3.364l10.463,3.385a45.966,45.966,0,0,0,3.7,12.535l-6.937,8.537a56.542,56.542,0,0,0,5.5,7.988l10.464-3.414a46.487,46.487,0,0,0,10.358,7.962l-.6,10.994a55.971,55.971,0,0,0,9.134,3.237l6.461-8.917a46.512,46.512,0,0,0,13.062.342l5.982,9.246a55.943,55.943,0,0,0,9.294-2.746l-.014-11.01a46.415,46.415,0,0,0,10.766-7.405l10.265,3.961a56.6,56.6,0,0,0,5.912-7.686l-6.478-8.893a45.986,45.986,0,0,0,4.367-12.321Zm-56.038,15.787a22.119,22.119,0,1,1,22.119-22.119A22.119,22.119,0,0,1,600.546,1165.474Z" transform="translate(-544.153 -1088.095)" fill="#0475e5"/>
        <g id="Group_137748" data-name="Group 137748" transform="translate(85.368 41.626)">
          <path id="Path_321913" data-name="Path 321913" d="M902.964,1301.7a1.193,1.193,0,0,1-.917-1.957,37.051,37.051,0,0,0,6.528-35.688,1.194,1.194,0,1,1,2.257-.777,39.439,39.439,0,0,1-6.95,37.992A1.192,1.192,0,0,1,902.964,1301.7Z" transform="translate(-901.771 -1262.472)" fill="#fff"/>
        </g>
        <g id="Group_137749" data-name="Group 137749" transform="translate(69.019 18.161)">
          <path id="Path_321914" data-name="Path 321914" d="M847.625,1174.661a1.189,1.189,0,0,1-.818-.324,36.777,36.777,0,0,0-12.734-7.846,1.194,1.194,0,1,1,.814-2.244,39.143,39.143,0,0,1,13.557,8.352,1.193,1.193,0,0,1-.819,2.062Z" transform="translate(-833.286 -1164.174)" fill="#fff"/>
        </g>
        <g id="Group_137750" data-name="Group 137750" transform="translate(46.621 15.883)">
          <path id="Path_321915" data-name="Path 321915" d="M740.647,1158.177a1.194,1.194,0,0,1-.291-2.351,39.513,39.513,0,0,1,9.667-1.2,1.194,1.194,0,1,1,0,2.387,37.137,37.137,0,0,0-9.082,1.123A1.189,1.189,0,0,1,740.647,1158.177Z" transform="translate(-739.454 -1154.63)" fill="#fff"/>
        </g>
      </g>
      <path id="Path_321916" data-name="Path 321916" d="M2053.736,623.887q0-.926-.051-1.839l7.838-6.294a41.748,41.748,0,0,0-2.848-9.005l-10.122-.765a33.675,33.675,0,0,0-8.761-9.3l-.034-10.086a41.784,41.784,0,0,0-8.974-3.462l-6.917,7.445a33.872,33.872,0,0,0-3.631-.2,33.533,33.533,0,0,0-8.807,1.172l-7.932-6.283a42.028,42.028,0,0,0-8.39,4.866l1.5,10a33.555,33.555,0,0,0-7.066,10.312l-9.869,2.287a42.016,42.016,0,0,0-1.458,9.513l8.691,5.025a33.277,33.277,0,0,0,3.718,12.282l-4.351,9.115a42.3,42.3,0,0,0,6.395,6.958l9.32-3.651a33.3,33.3,0,0,0,12.288,4.876l4.393,9.045c.524.019,1.048.032,1.577.032a42.3,42.3,0,0,0,7.707-.707l2.962-9.579a33.471,33.471,0,0,0,11.564-6.714l9.8,2.2a42.159,42.159,0,0,0,5.218-7.707l-5.678-8.339A33.435,33.435,0,0,0,2053.736,623.887Zm-33.867,14.759a14.109,14.109,0,1,1,14.11-14.109A14.109,14.109,0,0,1,2019.869,638.647Z" transform="translate(-1635.887 -474.149)" fill="#0475e5"/>
    </g>
    <g id="Group_137756" data-name="Group 137756" transform="translate(774.92 160.718)">
      <g id="Group_137753" data-name="Group 137753" transform="translate(57.06 3.551)" opacity="0.8">
        <path id="Path_321917" data-name="Path 321917" d="M2775.214,320.478h-12.127a8.5,8.5,0,0,1-8.492-8.492V299.859a8.5,8.5,0,0,1,8.492-8.492h12.127a8.5,8.5,0,0,1,8.492,8.492v12.127A8.5,8.5,0,0,1,2775.214,320.478Zm-12.127-25.769a5.156,5.156,0,0,0-5.15,5.15v12.127a5.156,5.156,0,0,0,5.15,5.15h12.127a5.156,5.156,0,0,0,5.15-5.15V299.859a5.156,5.156,0,0,0-5.15-5.15Z" transform="translate(-2754.595 -291.367)" fill="#0475e5"/>
      </g>
      <g id="Group_137754" data-name="Group 137754" transform="translate(0 3.551)" opacity="0.8">
        <path id="Path_321918" data-name="Path 321918" d="M2536.178,320.478h-12.126a8.5,8.5,0,0,1-8.492-8.492V299.859a8.5,8.5,0,0,1,8.492-8.492h12.126a8.5,8.5,0,0,1,8.493,8.492v12.127A8.5,8.5,0,0,1,2536.178,320.478Zm-12.126-25.769a5.156,5.156,0,0,0-5.15,5.15v12.127a5.156,5.156,0,0,0,5.15,5.15h12.126a5.156,5.156,0,0,0,5.151-5.15V299.859a5.156,5.156,0,0,0-5.151-5.15Z" transform="translate(-2515.56 -291.367)" fill="#0475e5"/>
      </g>
      <g id="Group_137755" data-name="Group 137755" transform="translate(5.165)">
        <path id="Path_321919" data-name="Path 321919" d="M2547.345,302.094l-.069,0a1.433,1.433,0,0,1-1.068-.559l-8.716-11.369a1.432,1.432,0,0,1,2.273-1.743l7.687,10.026,20.068-21.5a1.432,1.432,0,1,1,2.094,1.954l-21.222,22.738A1.432,1.432,0,0,1,2547.345,302.094Z" transform="translate(-2537.197 -276.491)" fill="#f37168"/>
      </g>
    </g>
    <path id="Path_321920" data-name="Path 321920" d="M1050.811,1705.172c-49.646-2.427-218.532,1.685-269.895,3.288s-110.985-2.115-141.955-7.582-209.988.465-201.864,15.165,79.76,6.576,161,12.484,263.943-.739,305.155,0,79-1.477,132.115-4.431S1079.588,1706.578,1050.811,1705.172Z" transform="translate(-76.114 -1198.615)" fill="#0475e5" opacity="0.21"/>
    <g id="Group_137761" data-name="Group 137761" transform="translate(281.465 199.176)">
      <rect id="Rectangle_26608" data-name="Rectangle 26608" width="103.779" height="170.099" transform="translate(0 0)" fill="#0475e5"/>
      <rect id="Rectangle_26609" data-name="Rectangle 26609" width="94.932" height="160.15" transform="translate(5.435 3.466)" fill="#fff"/>
      <g id="Group_137760" data-name="Group 137760" transform="translate(10.936 9.976)">
        <g id="Group_137757" data-name="Group 137757" transform="translate(22.894 9.832)">
          <path id="Path_321921" data-name="Path 321921" d="M590.122,688.78c3.573-7.687,9.62-10.149,19.551-10.149,11.824,0,17.964,4.284,19.7,10.52C608.2,689.441,590.122,688.78,590.122,688.78Z" transform="translate(-590.122 -640.901)" fill="#9bd6e8"/>
          <path id="Path_321922" data-name="Path 321922" d="M607.07,520.92c-5.006,1.405-4.786,4.218-6.454,6.828s-5.294,4.351-5.729,6.091,1.117,5.366-.725,7.4-2.466,3.046-1.74,5.076,2.32,5.221,2.465,5.656,2.176,3.481,4.641,3.916,7.106,1.16,9.427,2.176,9.782-1.3,13.923-1.155,6.962-2.906,6.671-4.937,3.054-6.091,3.046-9.572c-.009-3.738-4.351-6.526-5.511-8.992s.145-6.816-4.206-9.394c-2.75-1.629-4.641-1.484-6.817-2.209S610.26,520.024,607.07,520.92Z" transform="translate(-591.648 -520.576)" fill="#3a384d"/>
          <path id="Path_321923" data-name="Path 321923" d="M660.818,624.781c-1.132,1.671-1.962,1.74-3.191,0-.977-1.384-2.9-4.528-2.9-6.123V602.736a2.909,2.909,0,0,1,2.9-2.9h3.191a2.909,2.909,0,0,1,2.9,2.9v15.922C663.718,620.253,661.833,623.282,660.818,624.781Z" transform="translate(-639.304 -580.915)" fill="#ecb083"/>
          <path id="Path_321924" data-name="Path 321924" d="M660.818,599.835h-3.191a2.909,2.909,0,0,0-2.9,2.9v14.206c3.583,1.141,6.852-1.127,8.992-3.681V602.736A2.909,2.909,0,0,0,660.818,599.835Z" transform="translate(-639.304 -580.915)" fill="#ecb083"/>
          <ellipse id="Ellipse_10429" data-name="Ellipse 10429" cx="9.645" cy="13.142" rx="9.645" ry="13.142" transform="translate(10.273 5.94)" fill="#ecb083"/>
          <path id="Path_321925" data-name="Path 321925" d="M644.292,540.153c-6.091,10.3-15.083,9.282-15.083,9.282s.218-13.633,7.36-14.358,11.349,2.142,12.8,6.872,0,7.849,0,7.849a12.521,12.521,0,0,1-3.481-4.714A33.859,33.859,0,0,1,644.292,540.153Z" transform="translate(-619.878 -531.53)" fill="#3a384d"/>
          <ellipse id="Ellipse_10430" data-name="Ellipse 10430" cx="2.538" cy="3.807" rx="2.538" ry="3.807" transform="translate(5.042 17.618) rotate(-25.405)" fill="#ecb083"/>
          <path id="Path_321926" data-name="Path 321926" d="M706.338,591.627c-.9,1.9-.607,3.926.659,4.528s3.024-.451,3.926-2.35.607-3.927-.659-4.528S707.24,589.728,706.338,591.627Z" transform="translate(-678.198 -572.749)" fill="#ecb083"/>
          <path id="Path_321927" data-name="Path 321927" d="M665.623,630.368s-1.623,2.1-3.626,2.1-3.626-2.1-3.626-2.1Z" transform="translate(-642.08 -604.159)" fill="#fff"/>
        </g>
        <path id="Path_321928" data-name="Path 321928" d="M634.948,790.414H610.592a2.832,2.832,0,0,1,0-5.664h24.356a2.832,2.832,0,0,1,0,5.664Z" transform="translate(-580.656 -711.856)" fill="#0475e5"/>
        <path id="Path_321929" data-name="Path 321929" d="M625.186,826.866H591.911a2.832,2.832,0,0,1,0-5.664h33.275a2.832,2.832,0,1,1,0,5.664Z" transform="translate(-566.434 -739.607)" fill="#0475e5"/>
        <path id="Path_321930" data-name="Path 321930" d="M576.8,965.544H495.861a1.643,1.643,0,1,1,0-3.287H576.8a1.643,1.643,0,0,1,0,3.287Z" transform="translate(-494.217 -846.99)" fill="#0475e5"/>
        <path id="Path_321931" data-name="Path 321931" d="M576.8,997.54H495.861a1.643,1.643,0,1,1,0-3.287H576.8a1.643,1.643,0,0,1,0,3.287Z" transform="translate(-494.217 -871.348)" fill="#0475e5"/>
        <path id="Path_321932" data-name="Path 321932" d="M576.8,1029.536H495.861a1.643,1.643,0,1,1,0-3.287H576.8a1.643,1.643,0,0,1,0,3.287Z" transform="translate(-494.217 -895.707)" fill="#0475e5"/>
        <g id="Group_137758" data-name="Group 137758" transform="translate(10.03)">
          <path id="Path_321933" data-name="Path 321933" d="M597.469,538.987h-58.3a2.937,2.937,0,0,1-2.934-2.934V482.321a2.937,2.937,0,0,1,2.934-2.934h58.3a2.937,2.937,0,0,1,2.934,2.934v53.732A2.937,2.937,0,0,1,597.469,538.987Zm-58.3-57.213a.554.554,0,0,0-.547.547v53.732a.554.554,0,0,0,.547.547h58.3a.554.554,0,0,0,.547-.547V482.321a.554.554,0,0,0-.547-.547Z" transform="translate(-536.235 -479.387)" fill="#0475e5"/>
        </g>
        <g id="Group_137759" data-name="Group 137759" transform="translate(15.915 94.648)">
          <path id="Path_321934" data-name="Path 321934" d="M566.349,875.882l1.688,3.42,3.774.548-2.731,2.662.645,3.759-3.376-1.775-3.376,1.775.645-3.759-2.731-2.662,3.774-.548Z" transform="translate(-560.887 -875.882)" fill="#0475e5"/>
          <path id="Path_321935" data-name="Path 321935" d="M624.263,875.882l1.688,3.42,3.774.548-2.731,2.662.645,3.759-3.376-1.775-3.376,1.775.645-3.759L618.8,879.85l3.774-.548Z" transform="translate(-604.976 -875.882)" fill="#0475e5"/>
          <path id="Path_321936" data-name="Path 321936" d="M682.178,875.882l1.688,3.42,3.774.548-2.731,2.662.645,3.759-3.376-1.775-3.376,1.775.645-3.759-2.731-2.662,3.774-.548Z" transform="translate(-649.066 -875.882)" fill="#0475e5"/>
          <path id="Path_321937" data-name="Path 321937" d="M740.092,875.882l1.688,3.42,3.774.548-2.731,2.662.645,3.759-3.376-1.775-3.376,1.775.645-3.759-2.731-2.662,3.774-.548Z" transform="translate(-693.155 -875.882)" fill="#0475e5"/>
        </g>
      </g>
    </g>
    <g id="Group_137766" data-name="Group 137766" transform="translate(512.828 199.176)">
      <rect id="Rectangle_26610" data-name="Rectangle 26610" width="103.779" height="170.099" transform="translate(0 0)" fill="#0475e5"/>
      <rect id="Rectangle_26611" data-name="Rectangle 26611" width="94.932" height="160.15" transform="translate(5.435 3.466)" fill="#fff"/>
      <g id="Group_137765" data-name="Group 137765" transform="translate(10.936 9.976)">
        <g id="Group_137762" data-name="Group 137762" transform="translate(22.893 10.855)">
          <path id="Path_321938" data-name="Path 321938" d="M1578.225,596.877c0,7.619,4.587,19.912,15.409,19.517s13.215-12.112,13.634-15.419S1578.225,596.877,1578.225,596.877Z" transform="translate(-1573.716 -579.686)"/>
          <path id="Path_321939" data-name="Path 321939" d="M1559.335,688.78c3.573-7.687,9.621-10.149,19.551-10.149,11.824,0,17.964,4.284,19.7,10.52C1577.416,689.441,1559.335,688.78,1559.335,688.78Z" transform="translate(-1559.335 -641.924)" fill="#0475e5"/>
          <path id="Path_321940" data-name="Path 321940" d="M1630.031,624.781c-1.132,1.671-1.962,1.74-3.191,0-.977-1.384-2.9-4.528-2.9-6.123V602.736a2.909,2.909,0,0,1,2.9-2.9h3.191a2.909,2.909,0,0,1,2.9,2.9v15.922C1632.932,620.253,1631.046,623.282,1630.031,624.781Z" transform="translate(-1608.518 -581.938)" fill="#ecb083"/>
          <path id="Path_321941" data-name="Path 321941" d="M1630.031,599.835h-3.191a2.909,2.909,0,0,0-2.9,2.9v14.206c3.583,1.141,6.852-1.127,8.992-3.681V602.736A2.909,2.909,0,0,0,1630.031,599.835Z" transform="translate(-1608.518 -581.938)" fill="#ecb083"/>
          <ellipse id="Ellipse_10431" data-name="Ellipse 10431" cx="9.645" cy="13.142" rx="9.645" ry="13.142" transform="translate(10.273 4.917)" fill="#ecb083"/>
          <path id="Path_321942" data-name="Path 321942" d="M1598.831,532.93c-1.146,4.041-3.658,3.995-7.16,5.322s-5.176,2.663-6.322,5.248c-1.461,3.3.663,12.909.663,12.909s-8.868-6.636-7.842-17.072,7.178-14.477,12.969-14.477,7.993,3.529,7.993,3.529,3.085.013,6,3.469c3.921,4.645,2.715,15.925,0,19.967s-4.524,5.308-4.464,5.127,2.534-9.462,1.207-15.2A36.669,36.669,0,0,0,1598.831,532.93Z" transform="translate(-1573.612 -524.86)"/>
          <path id="Path_321943" data-name="Path 321943" d="M1634.837,630.368s-1.623,2.1-3.626,2.1-3.626-2.1-3.626-2.1Z" transform="translate(-1611.293 -605.182)" fill="#fff"/>
        </g>
        <path id="Path_321944" data-name="Path 321944" d="M1604.162,790.414h-24.356a2.832,2.832,0,0,1,0-5.664h24.356a2.832,2.832,0,0,1,0,5.664Z" transform="translate(-1549.87 -711.856)" fill="#0475e5"/>
        <path id="Path_321945" data-name="Path 321945" d="M1594.4,826.866h-33.275a2.832,2.832,0,0,1,0-5.664H1594.4a2.832,2.832,0,0,1,0,5.664Z" transform="translate(-1535.648 -739.607)" fill="#0475e5"/>
        <path id="Path_321946" data-name="Path 321946" d="M1546.016,965.544h-80.942a1.643,1.643,0,1,1,0-3.287h80.942a1.643,1.643,0,0,1,0,3.287Z" transform="translate(-1463.431 -846.99)" fill="#0475e5"/>
        <path id="Path_321947" data-name="Path 321947" d="M1546.016,997.54h-80.942a1.643,1.643,0,1,1,0-3.287h80.942a1.643,1.643,0,0,1,0,3.287Z" transform="translate(-1463.431 -871.348)" fill="#0475e5"/>
        <path id="Path_321948" data-name="Path 321948" d="M1546.016,1029.536h-80.942a1.643,1.643,0,1,1,0-3.287h80.942a1.643,1.643,0,0,1,0,3.287Z" transform="translate(-1463.431 -895.707)" fill="#0475e5"/>
        <g id="Group_137763" data-name="Group 137763" transform="translate(10.03)">
          <path id="Path_321949" data-name="Path 321949" d="M1566.683,538.987h-58.3a2.937,2.937,0,0,1-2.934-2.934V482.321a2.937,2.937,0,0,1,2.934-2.934h58.3a2.937,2.937,0,0,1,2.934,2.934v53.732A2.937,2.937,0,0,1,1566.683,538.987Zm-58.3-57.213a.554.554,0,0,0-.547.547v53.732a.554.554,0,0,0,.547.547h58.3a.554.554,0,0,0,.547-.547V482.321a.554.554,0,0,0-.547-.547Z" transform="translate(-1505.449 -479.387)" fill="#0475e5"/>
        </g>
        <g id="Group_137764" data-name="Group 137764" transform="translate(15.915 94.648)">
          <path id="Path_321950" data-name="Path 321950" d="M1535.563,875.882l1.688,3.42,3.774.548-2.731,2.662.645,3.759-3.376-1.775-3.376,1.775.645-3.759-2.731-2.662,3.774-.548Z" transform="translate(-1530.101 -875.882)" fill="#0475e5"/>
          <path id="Path_321951" data-name="Path 321951" d="M1593.477,875.882l1.688,3.42,3.774.548-2.731,2.662.645,3.759-3.376-1.775-3.376,1.775.645-3.759-2.731-2.662,3.774-.548Z" transform="translate(-1574.19 -875.882)" fill="#0475e5"/>
          <path id="Path_321952" data-name="Path 321952" d="M1651.391,875.882l1.688,3.42,3.774.548-2.731,2.662.645,3.759-3.376-1.775-3.376,1.775.645-3.759-2.731-2.662,3.774-.548Z" transform="translate(-1618.279 -875.882)" fill="#0475e5"/>
          <path id="Path_321953" data-name="Path 321953" d="M1709.306,875.882l1.688,3.42,3.774.548-2.731,2.662.645,3.759-3.376-1.775-3.376,1.775.645-3.759-2.731-2.662,3.774-.548Z" transform="translate(-1662.369 -875.882)" fill="#0475e5"/>
        </g>
      </g>
    </g>
    <path id="Path_321954" data-name="Path 321954" d="M944.172,608.007H780.393l11.585-167.766h158.1Z" transform="translate(-419.678 -240.434)" fill="#99bbeb" opacity="0.2"/>
    <g id="Group_137771" data-name="Group 137771" transform="translate(377.919 168.061)">
      <rect id="Rectangle_26612" data-name="Rectangle 26612" width="141.746" height="232.33" transform="translate(0 0)" fill="#0475e5"/>
      <rect id="Rectangle_26613" data-name="Rectangle 26613" width="129.662" height="218.74" transform="translate(7.423 4.734)" fill="#fff"/>
      <g id="Group_137770" data-name="Group 137770" transform="translate(14.937 14.062)">
        <g id="Group_137767" data-name="Group 137767" transform="translate(29.631 10.106)">
          <path id="Path_321955" data-name="Path 321955" d="M1096.113,435.007c-.09-.271-2.36-13.3-2.632-18.368s8.144-5.791,8.144-5.791,6.877-3.71,11.853-1.81a20.06,20.06,0,0,1,10.625,9.078c2.262,3.982-1.99,16.389-1.99,16.389Z" transform="translate(-1080.511 -408.497)" fill="#2e2d3d"/>
          <path id="Path_321956" data-name="Path 321956" d="M1039.168,633.108c-.031-.214.581-5.342.6-5.549,1.146-10.8,14.456-13.835,27.737-13.835,15.6,0,26.191,2.856,27.88,14.076.05.329.95,5.47.9,5.815C1067.372,634.011,1039.168,633.108,1039.168,633.108Z" transform="translate(-1039.167 -564.734)" fill="#0475e5"/>
          <path id="Path_321957" data-name="Path 321957" d="M1136.754,540.173c-1.546,2.283-2.679,2.377-4.358,0-1.334-1.89-5.791-6.2-5.791-8.381l1.829-21.729a3.973,3.973,0,0,1,3.962-3.962h4.358a3.973,3.973,0,0,1,3.962,3.962l.849,21.729C1141.566,533.971,1138.141,538.126,1136.754,540.173Z" transform="translate(-1105.733 -482.802)" fill="#ecb083"/>
          <path id="Path_321958" data-name="Path 321958" d="M1137.524,506.1h-4.358a3.973,3.973,0,0,0-3.962,3.962l-1.587,19.277c4.893,1.558,11.5-1.608,14.423-5.1l-.554-14.179A3.973,3.973,0,0,0,1137.524,506.1Z" transform="translate(-1106.503 -482.802)" fill="#ecb083"/>
          <path id="Path_321959" data-name="Path 321959" d="M1097.339,619.029l6.986,12.914s3.74-3.076,4.1-2.473-.664,8.216-.664,8.216,8.325.113,8.687-.249-1.689-8.269-.845-8.269,3.384,2.292,3.384,2.292l7.8-12.431-1.715-.418-12.781,6.877-13.67-6.726Z" transform="translate(-1083.453 -568.455)" fill="#3f8ddb"/>
          <path id="Path_321960" data-name="Path 321960" d="M1130.81,639.216,1136,642.7l-1.608,9.241,7-.39-1.748-8.405,4.3-3.927-2.02-1.9h-9.091Z" transform="translate(-1108.934 -582.691)" fill="#d54a41"/>
          <path id="Path_321961" data-name="Path 321961" d="M1107.655,591.923l-6.417,6.107s6.538,11.628,6.9,11.628,5.548-6.411,5.548-6.411l3.321-.058,5.246,5.5,6.1-10.784-6.216-6.589s-5.309,10.255-6.274,10.5-.972.362-1.753-.241S1107.655,591.923,1107.655,591.923Z" transform="translate(-1086.421 -547.678)" fill="#0475e5"/>
          <ellipse id="Ellipse_10432" data-name="Ellipse 10432" cx="13.173" cy="17.949" rx="13.173" ry="17.949" transform="translate(15.669 5.57)" fill="#ecb083"/>
          <path id="Path_321962" data-name="Path 321962" d="M1088.208,494.89c1.232,2.594.829,5.363-.9,6.184s-4.13-.616-5.362-3.21-.829-5.363.9-6.185S1086.976,492.3,1088.208,494.89Z" transform="translate(-1071.19 -471.647)" fill="#ecb083"/>
          <path id="Path_321963" data-name="Path 321963" d="M1204.761,494.89c-1.232,2.594-.829,5.363.9,6.184s4.13-.616,5.362-3.21.829-5.363-.9-6.185S1205.994,492.3,1204.761,494.89Z" transform="translate(-1164.689 -471.647)" fill="#ecb083"/>
          <path id="Path_321964" data-name="Path 321964" d="M1147.2,537.875s-2.617,4.238-5.844,4.238-5.844-4.238-5.844-4.238Z" transform="translate(-1112.512 -506.991)" fill="#fff"/>
          <path id="Path_321965" data-name="Path 321965" d="M1110.039,432.344c5.429-3.8,7.872-3.167,11.944,3.077s8.958,6.353,8.958,6.353l.634-6.474s-6.065-11.733-14.207-10.194-12.773,8.867-12.773,8.867-.4,13.737.74,14.206,1.267-4.434,2.081-5.429-.814-5.7.272-7.872S1110.039,432.344,1110.039,432.344Z" transform="translate(-1088.925 -421.035)" fill="#2e2d3d"/>
          <path id="Path_321966" data-name="Path 321966" d="M1200.773,485.439c1.9,2.075,1.176,10.315,2.172,10.224s1.357-7.872,1.085-8.686S1200.773,485.439,1200.773,485.439Z" transform="translate(-1162.196 -467.072)" fill="#2e2d3d"/>
        </g>
        <path id="Path_321967" data-name="Path 321967" d="M1077.436,789.145h-60.509a3.868,3.868,0,0,1,0-7.736h60.509a3.868,3.868,0,0,1,0,7.736Z" transform="translate(-989.66 -682.284)" fill="#0475e5"/>
        <path id="Path_321968" data-name="Path 321968" d="M1093.92,838.933h-45.449a3.868,3.868,0,0,1,0-7.736h45.449a3.868,3.868,0,0,1,0,7.736Z" transform="translate(-1013.674 -720.187)" fill="#0475e5"/>
        <path id="Path_321969" data-name="Path 321969" d="M1027.835,1028.345H917.281a2.245,2.245,0,0,1,0-4.489h110.554a2.245,2.245,0,1,1,0,4.489Z" transform="translate(-915.037 -866.856)" fill="#0475e5"/>
        <path id="Path_321970" data-name="Path 321970" d="M1027.835,1072.047H917.281a2.245,2.245,0,0,1,0-4.489h110.554a2.245,2.245,0,1,1,0,4.489Z" transform="translate(-915.037 -900.126)" fill="#0475e5"/>
        <path id="Path_321971" data-name="Path 321971" d="M1027.835,1115.748H917.281a2.245,2.245,0,0,1,0-4.489h110.554a2.245,2.245,0,1,1,0,4.489Z" transform="translate(-915.037 -933.395)" fill="#0475e5"/>
        <g id="Group_137768" data-name="Group 137768" transform="translate(14.136)">
          <path id="Path_321972" data-name="Path 321972" d="M1057.456,446.691H977.827a3.575,3.575,0,0,1-3.571-3.571V369.731a3.575,3.575,0,0,1,3.571-3.571h79.629a3.575,3.575,0,0,1,3.571,3.571V443.12A3.575,3.575,0,0,1,1057.456,446.691Zm-79.629-78.143a1.185,1.185,0,0,0-1.184,1.184V443.12a1.185,1.185,0,0,0,1.184,1.184h79.629a1.185,1.185,0,0,0,1.183-1.184V369.731a1.185,1.185,0,0,0-1.183-1.184Z" transform="translate(-974.256 -366.16)" fill="#0475e5"/>
        </g>
        <g id="Group_137769" data-name="Group 137769" transform="translate(12.146 128.838)">
          <path id="Path_321973" data-name="Path 321973" d="M973.378,905.881l2.305,4.671,5.155.749-3.73,3.636.88,5.134-4.611-2.424-4.611,2.424.881-5.134-3.73-3.636,5.155-.749Z" transform="translate(-965.918 -905.881)" fill="#0475e5"/>
          <path id="Path_321974" data-name="Path 321974" d="M1052.48,905.881l2.305,4.671,5.155.749-3.73,3.636.88,5.134-4.611-2.424-4.611,2.424.881-5.134-3.73-3.636,5.155-.749Z" transform="translate(-1026.137 -905.881)" fill="#0475e5"/>
          <path id="Path_321975" data-name="Path 321975" d="M1131.582,905.881l2.305,4.671,5.155.749-3.73,3.636.881,5.134-4.611-2.424-4.611,2.424.881-5.134-3.73-3.636,5.155-.749Z" transform="translate(-1086.357 -905.881)" fill="#0475e5"/>
          <path id="Path_321976" data-name="Path 321976" d="M1210.684,905.881l2.306,4.671,5.155.749-3.73,3.636.88,5.134-4.611-2.424-4.611,2.424.881-5.134-3.73-3.636,5.155-.749Z" transform="translate(-1146.576 -905.881)" fill="#0475e5"/>
          <path id="Path_321977" data-name="Path 321977" d="M1291.043,905.881l2.306,4.671,5.155.749-3.73,3.636.88,5.134-4.611-2.424-4.611,2.424.88-5.134-3.73-3.636,5.155-.749Z" transform="translate(-1207.753 -905.881)" fill="#0475e5"/>
        </g>
      </g>
    </g>
    <rect id="Rectangle_26614" data-name="Rectangle 26614" width="185.849" height="6.925" rx="3.463" transform="translate(563.444 385.998)" fill="#2e5b9a"/>
    <g id="Group_137776" data-name="Group 137776" transform="translate(636.863 267.666)">
      <path id="Path_321978" data-name="Path 321978" d="M2516.959,790.923c2.465,8.689-3.554,17.642-10.185,19.523s-11.362-4.023-13.827-12.712.913-17.257,7.543-19.138S2514.494,782.235,2516.959,790.923Z" transform="translate(-2359.675 -765.406)" fill="#ecb083"/>
      <path id="Path_321979" data-name="Path 321979" d="M2415.882,1536.709s16.994,26.394,19.289,27.542,8.032,1.434,5.881,5.738-3.012,21.23-5.021,22.091-19.221,2.869-16.64,0,4.171-1.434,5.473-6.6,3.134-14.919.7-16.927-17.357-20.083-17.357-20.083Z" transform="translate(-2295.773 -1342.828)" fill="#ecb083"/>
      <path id="Path_321980" data-name="Path 321980" d="M1971.8,1584.192s-20.657,34.046-24.483,37.107-16.449,7.651-6.121,8.416,15.3-3.443,21.8-5.356,14.536-3.06,11.476-8.033-1.789-15.83,4.808-22.715S1971.8,1584.192,1971.8,1584.192Z" transform="translate(-1937.219 -1378.976)" fill="#ecb083"/>
      <path id="Path_321981" data-name="Path 321981" d="M2159.513,1253.381s-51.137-1.337-71.412,15.3c-11.859,17.98-40.547,71.029-42.777,76.875,1.53,1.53,10.138,4.292,13.963,3.909,11.285-13.456,26.2-25.089,32.134-35.643,7.311-13.006,9.563-19.509,21.422-20.657s38.637-4.973,46.67-4.973S2159.513,1253.381,2159.513,1253.381Z" transform="translate(-2019.518 -1127.114)"/>
      <path id="Path_321982" data-name="Path 321982" d="M2640.638,1519.519h-2.681l-19.221-80.2h5.9Z" transform="translate(-2456.05 -1268.689)" fill="#2e5b9a"/>
      <path id="Path_321983" data-name="Path 321983" d="M2374.111,1510.477h2.681l22.057-83.032h-5.9Z" transform="translate(-2269.82 -1259.647)" fill="#2e5b9a"/>
      <path id="Path_321984" data-name="Path 321984" d="M2325.07,1238.789l-29.731,5.132s-39.508.363-57.568,3.727c-16.43,3.06-18.852,21.729,0,47.435,10.709,14.6,19.763,26.252,38.279,39.386,4.71-3.458,6.512-4.766,7.813-13.087-1.34-1.837-4.809-13.338-5.885-15.588-10.242-21.408-23.911-29.194-24.1-31.3,2.3-3.73,60.8,19.441,72.428,5.811C2337.41,1267.292,2325.07,1238.789,2325.07,1238.789Z" transform="translate(-2155.942 -1116.025)"/>
      <path id="Path_321985" data-name="Path 321985" d="M2529.913,955.749a31.111,31.111,0,0,0-23.264,5.789c-6.517,6.643-13.892,17.6-13.44,35.671.574,22.951-3.552,24.425.752,30.737,17.948,7.412,48.646,39.257,41.417,5.116-5.235-24.72,11.48-43.146-2-70.568C2532.278,960.263,2530.906,958.1,2529.913,955.749Z" transform="translate(-2359.55 -900.292)" fill="#0475e5"/>
      <path id="Path_321986" data-name="Path 321986" d="M2493.207,1024.132c-.349,11.965-2.039,15.49-.747,19.241,7.317.747,20.7,3.675,24.047,8.358,3.825,5.355,7.651,6.12,5.866,2.168s-6.5-9.564.765-28.818,10.712-32.261,3.571-45.65Z" transform="translate(-2359.552 -918.578)" fill="#0475e5"/>
      <path id="Path_321987" data-name="Path 321987" d="M2576.7,879.528a93.38,93.38,0,0,1-6.006-24.239l-12.623,3.73s7.172,16.066.287,21.8a65.86,65.86,0,0,0-4.921,4.494A31.109,31.109,0,0,1,2576.7,879.528Z" transform="translate(-2406.341 -824.071)" fill="#ecb083"/>
      <path id="Path_321988" data-name="Path 321988" d="M2585.919,860.482c-.748-.665-1.683-1.5-2.667-2.364l-10.3,3.042-.022.056a42.044,42.044,0,0,1,3.217,12.575c3.069-1.861,6.428-4.9,10.269-10.2C2586.213,862.416,2586.047,861.367,2585.919,860.482Z" transform="translate(-2421.182 -826.225)" fill="#ecb083"/>
      <path id="Path_321989" data-name="Path 321989" d="M2369.141,970.714c-13,4.547-11.559,18.244-23.525,38.444-6.193,10.454-11.944,10.3-11.944,10.3a277.074,277.074,0,0,1-32.089-2.032c-11-1.345-11.7,1.93-4.048,4.665,15.429,5.516,31.441,11.454,44.351,10.02s34.991-34.374,36.13-42.949C2379.591,977.3,2375.689,968.424,2369.141,970.714Z" transform="translate(-2207.654 -911.667)" fill="#f09959"/>
      <g id="Group_137772" data-name="Group 137772" transform="translate(109.087 87.343)">
        <path id="Path_321990" data-name="Path 321990" d="M2439.905,1177.039q-1.213,0-2.485-.031a123.636,123.636,0,0,1-23.6-2.905c-6.767-1.376-10.494-2.133-14.833-.06a3.342,3.342,0,1,1-2.882-6.031c6.358-3.038,11.68-1.957,19.045-.459a117.761,117.761,0,0,0,22.438,2.773c11.2.279,18.029-1.382,21.49-5.221,3.084-3.419,3.986-9.166,2.839-18.083-.392-3.052-.785-5.59-1.131-7.83-.977-6.318-1.622-10.492-.823-16.944.742-5.992,2.726-13.974,7.322-29.45a3.342,3.342,0,0,1,6.408,1.9c-8.563,28.839-8.129,31.648-6.3,43.47.352,2.279.751,4.862,1.155,8,1.414,11-.018,18.435-4.505,23.412C2459.418,1174.7,2451.918,1177.039,2439.905,1177.039Z" transform="translate(-2394.199 -1090.406)" fill="#2e5b9a"/>
      </g>
      <path id="Path_321991" data-name="Path 321991" d="M1973.2,1704.4c-13.707,6.7-21.084,10.545-25.478,10.179-1.038-.086-1.9-.192-2.618-.3-4.888,2.889-12.691,6.3-3.912,6.953,10.329.765,15.3-3.443,21.8-5.356s14.536-3.06,11.476-8.033A10.465,10.465,0,0,1,1973.2,1704.4Z" transform="translate(-1937.219 -1470.489)"/>
      <path id="Path_321992" data-name="Path 321992" d="M2471.508,1654.431c-.335,10.852-1.826,21.606-8.464,23.637a11.153,11.153,0,0,1-4.782.427c-1.044,1.291-2.318,1.3-4.027,3.2-2.582,2.869,14.632.861,16.64,0s2.869-17.787,5.021-22.091C2477.663,1656.074,2474.106,1655.249,2471.508,1654.431Z" transform="translate(-2330.616 -1432.448)"/>
      <g id="Group_137773" data-name="Group 137773" transform="translate(23.611 74.724)">
        <path id="Path_321993" data-name="Path 321993" d="M2100.613,1082.1h-43.544a3.341,3.341,0,0,1-3.031-1.934l-17.6-37.872a3.342,3.342,0,0,1,6.062-2.816l16.7,35.938h41.412a3.342,3.342,0,1,1,0,6.684Z" transform="translate(-2036.13 -1037.542)" fill="#75a1de"/>
      </g>
      <path id="Path_321994" data-name="Path 321994" d="M2220.946,1154.2c-8.8-.128-17.525-5.372-21.86-4.607s-18.489,10.584-16.7,10.966,13.006-5.434,13.389-5.522,2.805,4.028,8.8,5.54.042-4.492,18.62,1.119C2235.268,1165.341,2220.946,1154.2,2220.946,1154.2Z" transform="translate(-2123.74 -1048.06)" fill="#ecb083"/>
      <path id="Path_321995" data-name="Path 321995" d="M2550.488,913.192l1.294,10.416s-11.385.677-17.051,3.865-14.027,12.4-14.027,12.4l6.831-11.761.983-7.523Z" transform="translate(-2381.419 -868.152)" fill="#fff"/>
      <path id="Path_321996" data-name="Path 321996" d="M2413.664,965.945c-8.457-1.585-12.369,5.993-17.852,18.362s-14.843,27.391-16.7,29.328-31.369,0-31.369,0-.892,8.543,0,9.563,5.993.893,5.993.893,2.04,1.629,3.953,2.918,18.106,3.713,25.63,3.33,14.409-1.02,15.429-2.168,21.55-32.771,22.825-44.12S2417.98,966.754,2413.664,965.945Z" transform="translate(-2249.441 -908.153)" fill="#fff"/>
      <path id="Path_321997" data-name="Path 321997" d="M2477.24,730.278c-15.994.765-13.486,24.826-13.486,24.826s4.154,1.283,12.857-.152c-.669-2.582-.382-9.181-.382-9.181a60.147,60.147,0,0,0,2.3,8.607c1.84.843,3.921.1,7.46-.76,1.817,7.645,6.952,10.875,10.467,11.981,3.885,1.221,8,2.678,12.587.382s2.066-25.758-.372-30.476c-3.659-7.082-9.74-13.421-20.26-10.074A78.138,78.138,0,0,0,2477.24,730.278Z" transform="translate(-2337.955 -724.512)"/>
      <path id="Path_321998" data-name="Path 321998" d="M2637.22,862.885l6.539,9.551s-7.247,18.107,13.83,26.311c16.507,6.425,14.563,17.745,7.1,29.129s4.463,21.326,4.463,21.326,1.818-12.611,17.856-14.992c21.869-3.246,28.061-32.606,11.727-47.287-13.516-12.148-17.628-2.088-26.778-12.99s-26.421-3.538-26.421-3.538l-6.33-9.232Z" transform="translate(-2470.121 -828.543)"/>
      <g id="Group_137774" data-name="Group 137774" transform="translate(174.837 37.692)">
        <path id="Path_321999" data-name="Path 321999" d="M2730.94,932.674a.581.581,0,0,1-.51-.861c5.5-10.049,1.011-22.224-1.245-25.522-.239-.35-.466-.7-.706-1.079-2.218-3.461-4.977-7.769-19.7-10.42-3.546-.638-6.417-2.746-9.458-4.978-6.279-4.61-13.4-9.834-28.859-2.717a.582.582,0,1,1-.486-1.057c16.084-7.4,23.495-1.964,30.033,2.836,2.929,2.15,5.694,4.18,8.976,4.771,15.224,2.741,18.135,7.285,20.474,10.937.236.367.458.714.687,1.049,2.365,3.455,7.065,16.211,1.306,26.737A.581.581,0,0,1,2730.94,932.674Z" transform="translate(-2669.636 -882.409)" fill="#303c60"/>
      </g>
      <g id="Group_137775" data-name="Group 137775" transform="translate(146.518 21.379)">
        <path id="Path_322000" data-name="Path 322000" d="M2568.094,836.821a23.035,23.035,0,0,1-3.4-.273c-5.6-.838-13.1-4.018-13.691-21.876a.581.581,0,1,1,1.162-.038c.243,7.361,1.7,12.807,4.34,16.187a12.2,12.2,0,0,0,8.361,4.577c5.178.775,8.611-.18,10.2-2.842a.582.582,0,0,1,1,.6C2574.611,835.593,2571.935,836.821,2568.094,836.821Z" transform="translate(-2551.006 -814.072)"/>
      </g>
    </g>
    <path id="Path_322001" data-name="Path 322001" d="M1711.333,1367.759h4.3l16.717-127.783h-9.454Z" transform="translate(-1128.391 -849.263)" fill="#2e5b9a"/>
    <path id="Path_322002" data-name="Path 322002" d="M2255.168,1367.759h-4.3l-16.717-127.783h9.454Z" transform="translate(-1526.409 -849.263)" fill="#2e5b9a"/>
    <g id="Group_137777" data-name="Group 137777" transform="translate(845.343 380.868)">
      <path id="Path_322003" data-name="Path 322003" d="M3003.395,1323.431c7.435,6.788,4.2,13.576-1.293,26.183s-6.465,59.154-6.465,59.154l4.526-.646s-.646-47.841,5.5-60.77,8.728-19.395,14.223-15.193S3003.395,1323.431,3003.395,1323.431Z" transform="translate(-2951.459 -1293.664)" fill="#74b570"/>
      <path id="Path_322004" data-name="Path 322004" d="M3009.747,1219.71c.9-4.023,6.265-8.376,13.436-12.068-1.066,5.933-4.485,15.635-.947,17.625,4.771,2.683.465-10.861,2.306-18.306a88.587,88.587,0,0,1,22.291-7.312c-.011.028-.019.054-.03.082-4.2,10.667-9.7,14.869-7.435,16.486,1.7,1.216,7.248-11.106,14.569-17.423,5.5-.293,10.145.452,12.9,2.63,4.251,3.365,7.105,6.351,2.829,16.6a19.211,19.211,0,0,1-9.283,3.365c-9.7.969-14.223,1.293-7.435,4.526,3.324,1.583,8.9-.09,13.414-1.108-1.466,2.7-3.267,5.757-5.456,9.238a34.321,34.321,0,0,1-4.543,5.782c-3.125.6-5.85.605-7.293-.013-4.525-1.939-16.162-8.081-19.072-5.5-2.847,2.531,21.552,4.134,19.861,10.566-11.826,6.814-25.359,3.572-27.751-2.685C3018.89,1233.8,3007.028,1231.82,3009.747,1219.71Z" transform="translate(-2961.896 -1198.733)" fill="#9cd499"/>
      <path id="Path_322005" data-name="Path 322005" d="M2996.761,1465.962c-12.93-9.7-26.183-.647-32.972,9.7s-1.939,33.618-1.939,33.618,2.586,0,2.586-.969-7.111-27.476,9.7-39.436c10.515-7.482,18.1-3.879,19.072-.323s-4.2,10.021-4.2,10.021Z" transform="translate(-2924.461 -1399.022)" fill="#74b570"/>
      <path id="Path_322006" data-name="Path 322006" d="M2987.033,1395.649c12.93,0,17.132,20.042,13.576,31.678s-8.4,33.295-8.4,33.295l-3.233-3.233s12.284-30.385,9.375-43.962-10.021-15.839-11.314-15.839S2987.033,1395.649,2987.033,1395.649Z" transform="translate(-2944.472 -1348.643)" fill="#9cd499"/>
      <path id="Path_322007" data-name="Path 322007" d="M3023.948,1519.611a9.368,9.368,0,0,1,3.4-2.86,25.6,25.6,0,0,1-.672,2.77c-1.62,5.3-3.508,12.683-5.085,19.15-.143-.828-.364-2.1-.7-4.073-.08-.465-.143-.97-.187-1.5A125.307,125.307,0,0,0,3023.948,1519.611Z" transform="translate(-2970.542 -1440.836)" fill="#74b570"/>
      <path id="Path_322008" data-name="Path 322008" d="M3027.784,1471.015c24.567-10.344,11.624-24.539,33.281-15.165a16.072,16.072,0,0,1,5.246,4.622,16.126,16.126,0,0,1-6.862.551c-6.465-.97-4.2,4.2,6.465,5.5a23.945,23.945,0,0,1,5,1.055c5.082,9.76,7.373,22.6-3.382,27.068a24.352,24.352,0,0,1-7.654,1.571c-3.319-2.637.81-17.9-4.306-15.794-4.912,2.023,1.539,13.084.655,15.871a70.858,70.858,0,0,1-15.346-2.151,7.641,7.641,0,0,1-4.057-4.669c-1.616-6.788,9.051-10.99,9.375-16.809.3-5.349-3.91,11.768-15.055,14.287C3021.063,1482.239,3016.3,1475.851,3027.784,1471.015Z" transform="translate(-2970.843 -1392.143)" fill="#9cd499"/>
      <path id="Path_322009" data-name="Path 322009" d="M2850.007,1377.79c2.586-5.5-4.2-6.788-3.879-2.586.287,3.723.318,12.775-3.5,15.239a59.923,59.923,0,0,1-22.321-7.413,2.747,2.747,0,0,1,.285-1.685c2.909-5.819,21.657-10.667,15.839-12.607-4.634-1.544-12.754,7.573-19.3,12.165-3.93-2.982-6.563-6.536-6.563-10.5,0-5.37,6.525-11.449,14.964-14.354,3.8.383,7.325,2.459,12.836,5.582,8.14,4.613,6.258-2.845-1.439-7.271a23.183,23.183,0,0,1,18.154,9.964s-.462,2.9,2.606,7.383c8.369,12.233-1.29,19.374-12.836,18.91C2845.509,1387.389,2848.221,1381.587,2850.007,1377.79Z" transform="translate(-2810.571 -1317.207)" fill="#9cd499"/>
      <path id="Path_322010" data-name="Path 322010" d="M3100.966,1476.6c6.322,4.885,13.344,10.6,21.964,14.475s6.9,16.522,6.9,16.522,1.293-10.919-5.89-14.655-11.925-8.189-17.385-9.052a79.126,79.126,0,0,1-8.477-1.724s1.724-3.448.718-4.741S3100.966,1476.6,3100.966,1476.6Z" transform="translate(-3029.444 -1410.205)" fill="#74b570"/>
      <path id="Path_322011" data-name="Path 322011" d="M3092.721,1236.565c-23.132,6.177-40.085,20.976-43.246,24.568s-3.161,4.6-3.161,4.6l2.442,4.6,1.149-.575s-1.868-3.879,3.017-8.908c8.424-8.672,18.678-15.517,25.718-18.534S3092.721,1236.565,3092.721,1236.565Z" transform="translate(-2990.04 -1227.534)" fill="#74b570"/>
      <path id="Rectangle_26615" data-name="Rectangle 26615" d="M15.8,0h0a15.8,15.8,0,0,1,15.8,15.8V31.683a0,0,0,0,1,0,0H0a0,0,0,0,1,0,0V15.8A15.8,15.8,0,0,1,15.8,0Z" transform="translate(59.047 137.068) rotate(180)" fill="#0475e5"/>
      <rect id="Rectangle_26616" data-name="Rectangle 26616" width="31.594" height="2.224" transform="translate(27.453 109.014)" fill="#fff"/>
      <rect id="Rectangle_26617" data-name="Rectangle 26617" width="31.594" height="1.308" transform="translate(27.453 113.07)" fill="#fff"/>
    </g>
  </g>
</svg>
