<svg
                                  xmlns="http://www.w3.org/2000/svg"
                                  width="30"
                                  height="30"
                                  viewBox="0 0 30 30"
                                  fill="none"
                                >
                                  <rect
                                    width="30"
                                    height="30"
                                    fill="white"
                                    fill-opacity="0.01"
                                  />
                                  <path
                                    d="M22.8784 15.3069C21.7201 11.8402 18.6077 9.35239 14.9391 9.35239C13.6259 9.35239 12.3874 9.67652 11.2818 10.2462L9.39552 8.35999L7.99219 9.76332L20.4826 22.2538L21.886 20.8504L20.269 19.2335C21.4464 18.2106 22.3598 16.859 22.8784 15.3068L22.8784 15.3069ZM14.9391 11.3372C17.1315 11.3372 18.9088 13.1145 18.9088 15.3069C18.9088 16.043 18.7 16.7249 18.348 17.3125L16.856 15.8205C16.9002 15.6569 16.9239 15.4848 16.9239 15.3069C16.9239 14.2106 16.0353 13.3221 14.9391 13.3221C14.7618 13.3221 14.5916 13.3488 14.4284 13.3928L12.9457 11.9101C13.5324 11.5589 14.2042 11.3372 14.9391 11.3372Z"
                                    fill="#97ADB6"
                                  />
                                  <path
                                    d="M14.9393 19.2766C12.7469 19.2766 10.9697 17.4993 10.9697 15.3069C10.9697 14.9537 11.0306 14.6174 11.1172 14.2915L8.8987 12.073C8.06476 12.9862 7.40873 14.0836 7 15.3069C8.15832 18.7737 11.2708 21.2614 14.9393 21.2614C15.878 21.2614 16.7793 21.0964 17.6217 20.796L15.9548 19.1291C15.6288 19.2157 15.2926 19.2766 14.9393 19.2766Z"
                                    fill="#97ADB6"
                                  />
                                </svg>